<svg xmlns="http://www.w3.org/2000/svg" viewBox="0 0 420.48 457.68"><defs><linearGradient id="a" x1="18.04" x2="402.38" y1="339.79" y2="117.89" gradientUnits="userSpaceOnUse"><stop offset="0" stop-color="#414751"/><stop offset=".07" stop-color="#593f47"/><stop offset=".18" stop-color="#7b343a"/><stop offset=".3" stop-color="#972a2f"/><stop offset=".44" stop-color="#ac2327"/><stop offset=".58" stop-color="#bb1e21"/><stop offset=".75" stop-color="#c41b1d"/><stop offset="1" stop-color="#c71a1c"/></linearGradient><linearGradient id="b" x1="17.54" x2="402.88" y1="340.08" y2="117.6" gradientUnits="userSpaceOnUse"><stop offset="0" stop-color="#a74853"/><stop offset=".05" stop-color="#ab424c"/><stop offset=".23" stop-color="#b73037"/><stop offset=".42" stop-color="#c02428"/><stop offset=".66" stop-color="#c51c1f"/><stop offset="1" stop-color="#c71a1c"/></linearGradient></defs><g data-name="Шар 2" style="isolation:isolate"><g data-name="Шар 1"><path fill="url(#a)" stroke="url(#b)" stroke-miterlimit="10" d="M404.91 335.4V122.28L210.21 15.72 15.51 122.28V335.4l194.7 106.56 194.7-106.56z"/><path fill="#f1f1f1" fill-rule="evenodd" d="M202.55 345.13c-4.36 3.18-12.14 1.07-13.13-1.81-3.36 2-10.95 3.47-10.14-4.55.81-6.45 9.34-15.66 15.31-28.86-3.27-2.88-1.94-7.63-.8-9-2.49-.95-2.64-6.89-.13-8.33-2.87-2-3.15-7.76-.57-9.9a5.76 5.76 0 0 1-1.76-6.16 36 36 0 0 1-10.7 4c-2.21 1.43-13.51 5.49-16.32 5.15-7.09-2.36-19.5-4.11-24.08-6.94 3.26-1.26 15.68-4.32 25.89 3.47a16.52 16.52 0 0 1 12.15-4.72 45.58 45.58 0 0 1 11.23-5.57 31 31 0 0 1-1.78-3.79c-5.26 1.24-12.19 2-14.42 1.77-2.92.95-16.65 2.29-19.58 1.16-6.84-4.49-19.68-9.75-23.63-14.07 4-.48 18.58-.43 26.86 10.79a19.7 19.7 0 0 1 14.89-1.82 79.08 79.08 0 0 1 14.16-3.4c-.38-1.49-.73-3.08-1-4.76-5.95 0-12.74-.5-14.56-1.15-3.1.28-16.77-1.43-19.27-3.17-5.31-5.84-23.39-21.68-26-26.72 4 .41 25.28 11.59 30 24.26a19.73 19.73 0 0 1 14.94 1.5 76.13 76.13 0 0 1 14.17 0 63.08 63.08 0 0 1-.11-8.06 33.94 33.94 0 0 1-6.77-1.26c-3.09.28-16.77-1.44-19.27-3.17-5.31-5.84-12-12.29-15-17 4 .41 14.31 1.84 19 14.5a19.72 19.72 0 0 1 14.94 1.51 50.07 50.07 0 0 1 6.6-.38 72.42 72.42 0 0 1-16.93-13.26c-7.39-3.61-15.16-9.82-19.54-18.84-27.41-35.33 3.71-81.4 23.64-96.52-6.72 20.28-14.13 41.25-15.61 59.71 7.21-6.48 15.92-21.67 22.55-47.9 2 21.34-2.16 44.09-11.85 53.29-.22 3.4-4.22 21.12-8.12 25.55 6.51 2.34 13.34 9.61 18 17.14 3.39.27 8.57 2.18 13.37 4.91 3.45-7.9 9.69-16.15 15-23.21-4.34-16.47-11.82-36.45-20.22-57.37 10.27 13.09 18.6 36.59 24.11 53.77a34.14 34.14 0 0 1 2.07-2.87 34.14 34.14 0 0 1 2.07 2.87c5.51-17.18 13.84-40.68 24.1-53.77-8.4 20.92-15.88 40.9-20.22 57.37 5.29 7.06 11.54 15.31 15 23.21 4.81-2.73 10-4.64 13.38-4.91 4.67-7.53 11.5-14.8 18-17.14-3.91-4.43-7.9-22.15-8.12-25.55-9.69-9.2-13.89-31.95-11.85-53.29 6.62 26.23 15.34 41.42 22.55 47.9-1.48-18.46-8.89-39.43-15.61-59.71 19.93 15.12 51.05 61.19 23.63 96.52-4.38 9-12.14 15.23-19.54 18.84a72.14 72.14 0 0 1-16.92 13.26 49.83 49.83 0 0 1 6.59.38 19.73 19.73 0 0 1 14.94-1.51c4.74-12.66 15-14.09 19.05-14.5-3 4.68-9.66 11.13-15 17-2.5 1.73-16.18 3.45-19.27 3.17a34.09 34.09 0 0 1-6.77 1.26 61.25 61.25 0 0 1-.12 8.06 76.24 76.24 0 0 1 14.18 0 19.72 19.72 0 0 1 14.94-1.5c4.74-12.67 26-23.85 30-24.26-2.57 5-20.64 20.88-25.95 26.72-2.5 1.74-16.17 3.45-19.27 3.17-1.82.65-8.61 1.15-14.56 1.15-.29 1.68-.63 3.27-1 4.76a80 80 0 0 1 14.11 3.36 19.7 19.7 0 0 1 14.89 1.82c8.27-11.22 22.86-11.28 26.86-10.79-3.95 4.32-16.79 9.58-23.64 14.07-2.92 1.13-16.65-.21-19.57-1.16-2.23.26-9.16-.53-14.42-1.77a31 31 0 0 1-1.78 3.79 45.36 45.36 0 0 1 11.22 5.57 16.5 16.5 0 0 1 12.15 4.72c10.22-7.79 22.63-4.73 25.9-3.47-4.58 2.83-17 4.58-24.08 6.94-2.81.34-14.11-3.72-16.32-5.15a36.18 36.18 0 0 1-10.71-4 5.76 5.76 0 0 1-1.75 6.16c2.57 2.14 2.3 7.95-.57 9.9 2.51 1.44 2.36 7.38-.13 8.33 1.14 1.42 2.47 6.16-.81 9 6 13.19 14.51 22.41 15.32 28.86.81 8-6.78 6.56-10.14 4.55-1 2.88-8.77 5-13.14 1.81-2.68 3.31-12.63 3.31-15.31 0Z"/></g></g></svg>